<svg width="73" height="72" fill="none" xmlns="http://www.w3.org/2000/svg"><path d="m66.5 32.76-8.22-4.77c7.92-6.75-.03-19.35-9.54-15.06l-2.61 1.11-.33-2.88c-.3-3.24-1.98-5.55-4.2-6.9-4.92-2.86-12.42-.9-13.62 6.24l-8.25-4.74a5.958 5.958 0 0 0-8.19 2.19l-3 5.19c-.84 1.44-.33 3.27 1.11 4.11l23.37 13.5 4.5-7.8 5.19 3-4.5 7.8 23.37 13.5c1.44.75 3.3.33 4.11-1.11l3-5.19c1.65-2.88.69-6.54-2.19-8.19ZM37.61 15c-2.61.75-4.71-2.04-3.39-4.35.78-1.44 2.67-1.92 4.11-1.11 2.31 1.35 1.86 4.83-.72 5.46Zm15.57 9c-2.58.75-4.68-2.04-3.36-4.35.81-1.44 2.67-1.92 4.08-1.11 2.31 1.35 1.86 4.83-.72 5.46Zm9.93 26.64c1.23 0 2.4-.42 3.39-1.14V60c0 3.33-2.67 6-6 6h-48c-3.3 0-6-2.67-6-6V33h24.45l2.55 1.5V60h6V37.95l20.61 11.88c.9.54 1.89.81 3 .81Z" fill="#fff"/></svg>