<svg width="20" height="20" fill="none" xmlns="http://www.w3.org/2000/svg"><g clip-path="url(#a)"><path d="M14.583.764A5.333 5.333 0 0 0 10 3.514 5.333 5.333 0 0 0 5.417.764 5.667 5.667 0 0 0 0 6.64c0 5.646 9.13 12.167 9.518 12.444l.482.34.482-.34C10.87 18.808 20 12.284 20 6.638A5.667 5.667 0 0 0 14.583.764ZM10 17.372c-2.711-2.025-8.333-7-8.333-10.733a4 4 0 0 1 3.75-4.208 4 4 0 0 1 3.75 4.208h1.666a4 4 0 0 1 3.75-4.208 4 4 0 0 1 3.75 4.208c0 3.734-5.622 8.708-8.333 10.733Z" fill="#AB0000"/></g><defs><clipPath id="a"><path fill="#fff" d="M0 0h20v20H0z"/></clipPath></defs></svg>