<svg xmlns="http://www.w3.org/2000/svg" width="24" height="24" fill="none">
  <path fill="url(#a)" fill-rule="evenodd" d="M15.75 2h-7.5A6.25 6.25 0 0 0 2 8.25v7.5A6.25 6.25 0 0 0 8.25 22h7.5A6.25 6.25 0 0 0 22 15.75v-7.5A6.25 6.25 0 0 0 15.75 2Zm4.375 13.75a4.38 4.38 0 0 1-4.375 4.375h-7.5a4.38 4.38 0 0 1-4.375-4.375v-7.5A4.38 4.38 0 0 1 8.25 3.875h7.5a4.38 4.38 0 0 1 4.375 4.375v7.5ZM12 7.2a4.8 4.8 0 1 0 0 9.6 4.8 4.8 0 0 0 0-9.6Zm0 7.8c-1.653 0-3-1.346-3-3 0-1.655 1.347-3 3-3 1.654 0 3 1.345 3 3 0 1.654-1.346 3-3 3Zm6-8.4a.6.6 0 1 1-1.2 0 .6.6 0 0 1 1.2 0Z" clip-rule="evenodd"/>
  <defs>
    <linearGradient id="a" x1="4.929" x2="19.071" y1="19.071" y2="4.929" gradientUnits="userSpaceOnUse">
      <stop stop-color="#FFC107"/>
      <stop offset=".507" stop-color="#F44336"/>
      <stop offset=".99" stop-color="#9C27B0"/>
    </linearGradient>
  </defs>
</svg>
