<svg xmlns="http://www.w3.org/2000/svg" width="32" height="32" viewBox="0 0 32 32" fill="none">
<path fill-rule="evenodd" clip-rule="evenodd" d="M21.0001 2.66663H11.0001C6.39841 2.66663 2.66675 6.39829 2.66675 11V21C2.66675 25.6016 6.39841 29.3333 11.0001 29.3333H21.0001C25.6017 29.3333 29.3334 25.6016 29.3334 21V11C29.3334 6.39829 25.6017 2.66663 21.0001 2.66663ZM26.8334 21C26.8334 24.2166 24.2167 26.8333 21.0001 26.8333H11.0001C7.78341 26.8333 5.16675 24.2166 5.16675 21V11C5.16675 7.78329 7.78341 5.16663 11.0001 5.16663H21.0001C24.2167 5.16663 26.8334 7.78329 26.8334 11V21ZM16.0003 9.60022C12.4659 9.60022 9.60034 12.4658 9.60034 16.0002C9.60034 19.5346 12.4659 22.4002 16.0003 22.4002C19.5347 22.4002 22.4003 19.5346 22.4003 16.0002C22.4003 12.4658 19.5347 9.60022 16.0003 9.60022ZM16.0003 20.0002C13.7955 20.0002 12.0003 18.205 12.0003 16.0002C12.0003 13.7938 13.7955 12.0002 16.0003 12.0002C18.2051 12.0002 20.0003 13.7938 20.0003 16.0002C20.0003 18.205 18.2051 20.0002 16.0003 20.0002ZM23.9998 8.79996C23.9998 9.24179 23.6416 9.59996 23.1998 9.59996C22.758 9.59996 22.3998 9.24179 22.3998 8.79996C22.3998 8.35813 22.758 7.99996 23.1998 7.99996C23.6416 7.99996 23.9998 8.35813 23.9998 8.79996Z" fill="url(#paint0_linear_846_129)"/>
<defs>
<linearGradient id="paint0_linear_846_129" x1="6.57225" y1="25.4278" x2="25.4279" y2="6.57213" gradientUnits="userSpaceOnUse">
<stop stop-color="#FFC107"/>
<stop offset="0.507" stop-color="#F44336"/>
<stop offset="0.99" stop-color="#9C27B0"/>
</linearGradient>
</defs>
</svg>