<svg width="20" height="20" fill="none" xmlns="http://www.w3.org/2000/svg"><g clip-path="url(#a)" fill="#4C5563"><path d="M5.833 5h13.334a.833.833 0 0 0 0-1.667H5.833a.833.833 0 0 0 0 1.667ZM19.167 9.167H5.833a.833.833 0 1 0 0 1.666h13.334a.833.833 0 0 0 0-1.666ZM19.167 15H5.833a.833.833 0 1 0 0 1.667h13.334a.833.833 0 0 0 0-1.667ZM1.667 5.833a1.667 1.667 0 1 0 0-3.333 1.667 1.667 0 0 0 0 3.333ZM1.667 11.667a1.667 1.667 0 1 0 0-3.334 1.667 1.667 0 0 0 0 3.334ZM1.667 17.5a1.667 1.667 0 1 0 0-3.333 1.667 1.667 0 0 0 0 3.333Z"/></g><defs><clipPath id="a"><path fill="#fff" d="M0 0h20v20H0z"/></clipPath></defs></svg>