<svg width="132" height="29" fill="none" xmlns="http://www.w3.org/2000/svg"><g clip-path="url(#a)"><path d="M31.497 22.848V.251h3.522c2.042 0 3.536.134 4.481.4 1.342.358 2.409 1.024 3.202 1.997.792.973 1.189 2.12 1.189 3.44 0 .861-.183 1.645-.55 2.351-.355.697-.94 1.352-1.752 1.966 1.361.646 2.358 1.455 2.988 2.428.63.962.945 2.104.945 3.425 0 1.27-.325 2.427-.976 3.472-.65 1.045-1.489 1.828-2.515 2.35-1.027.512-2.444.768-4.253.768h-6.28Zm4.269-18.495v4.762h.93c1.036 0 1.803-.22 2.301-.66.508-.44.763-1.04.763-1.798 0-.706-.24-1.265-.717-1.674-.478-.42-1.204-.63-2.18-.63h-1.097Zm0 8.603v5.79h1.067c1.768 0 2.957-.224 3.567-.675.62-.45.93-1.106.93-1.966 0-.973-.361-1.741-1.083-2.305-.721-.563-1.92-.844-3.597-.844h-.884ZM49.134 6.135h4.208v8.05c0 1.566.106 2.657.32 3.271.213.605.554 1.076 1.021 1.414.478.337 1.062.506 1.753.506.691 0 1.276-.163 1.753-.491.488-.338.849-.83 1.083-1.475.172-.481.259-1.51.259-3.087V6.135h4.176v7.082c0 2.918-.228 4.915-.685 5.99-.56 1.311-1.383 2.32-2.47 3.027-1.087.696-2.47 1.044-4.146 1.044-1.82 0-3.293-.41-4.421-1.229-1.118-.819-1.906-1.96-2.363-3.425-.325-1.014-.488-2.857-.488-5.53v-6.96ZM66.055 6.135h4.253l4.314 10.492 4.756-10.492h4.268L73.25 28.962H68.95l3.415-7.358-6.31-15.47ZM85.979 6.135h4.176v1.92c.712-.788 1.5-1.377 2.363-1.766a6.928 6.928 0 0 1 2.85-.584c1.038 0 1.973.256 2.806.768s1.504 1.26 2.012 2.243c.661-.983 1.468-1.73 2.424-2.243a6.628 6.628 0 0 1 3.155-.768c1.179 0 2.216.277 3.11.83.894.553 1.535 1.275 1.921 2.166.396.89.594 2.34.594 4.347v9.8h-4.192V14.37c0-1.894-.233-3.175-.701-3.84-.468-.676-1.169-1.014-2.103-1.014a3.21 3.21 0 0 0-1.922.614c-.558.41-.975.978-1.249 1.705-.274.717-.412 1.875-.412 3.472v7.543h-4.192v-8.096c0-1.495-.112-2.576-.335-3.241-.214-.676-.539-1.178-.976-1.506-.437-.327-.965-.491-1.586-.491-.69 0-1.32.21-1.89.63-.559.41-.98.988-1.264 1.735-.275.748-.413 1.926-.413 3.534v7.435H85.98V6.135ZM131.985 15.706h-13.369c.193 1.188.706 2.135 1.54 2.841.843.697 1.916 1.045 3.216 1.045 1.555 0 2.891-.548 4.009-1.644l3.506 1.66c-.873 1.249-1.921 2.176-3.14 2.78-1.22.594-2.667.89-4.344.89-2.602 0-4.721-.824-6.357-2.472-1.636-1.66-2.454-3.733-2.454-6.222 0-2.55.812-4.665 2.439-6.344 1.636-1.69 3.684-2.535 6.143-2.535 2.612 0 4.736.845 6.372 2.535 1.636 1.68 2.454 3.902 2.454 6.667l-.015.799Zm-4.177-3.303c-.275-.932-.818-1.69-1.631-2.274-.803-.584-1.738-.875-2.805-.875-1.158 0-2.175.327-3.049.983-.548.41-1.057 1.131-1.524 2.166h9.009Z" fill="#fff"/><path d="M31.394 29h38.37l2.18-3.955h-40.55V29ZM80.228 6.151h7.85v3.516h-7.85V6.15Z" fill="#fff"/><path d="m22.673 0-8.72 4.42v19.982L22.673 29V0ZM9.593 9.666 0 14.893 9.593 20.3V9.666Z" fill="#AB0000"/></g><defs><clipPath id="a"><path fill="#fff" d="M0 0h132v29H0z"/></clipPath></defs></svg>