<svg xmlns="http://www.w3.org/2000/svg" width="180" height="40" fill="none">
  <g clip-path="url(#a)">
    <path fill="#fff" d="M42.95 31.227V.838h4.803c2.785 0 4.822.18 6.111.537 1.83.482 3.284 1.378 4.365 2.686 1.081 1.308 1.622 2.85 1.622 4.628 0 1.156-.25 2.21-.749 3.16-.485.937-1.281 1.818-2.39 2.645 1.857.867 3.215 1.955 4.074 3.264.86 1.294 1.289 2.83 1.289 4.607 0 1.708-.444 3.264-1.33 4.669-.887 1.404-2.03 2.458-3.43 3.16-1.4.689-3.333 1.033-5.8 1.033h-8.564Zm5.821-24.873v6.404h1.268c1.414 0 2.46-.296 3.139-.888.693-.592 1.04-1.398 1.04-2.417 0-.95-.326-1.7-.978-2.252-.65-.565-1.642-.847-2.972-.847H48.77Zm0 11.57v7.787h1.455c2.412 0 4.033-.303 4.864-.909.846-.606 1.268-1.487 1.268-2.644 0-1.308-.491-2.341-1.475-3.099-.984-.757-2.62-1.136-4.906-1.136H48.77ZM67.001 8.75h5.738v10.826c0 2.107.145 3.574.436 4.4.291.813.755 1.446 1.393 1.9.651.455 1.448.682 2.39.682.943 0 1.74-.22 2.391-.66.665-.455 1.157-1.116 1.476-1.984.235-.647.353-2.031.353-4.152V8.75h5.696v9.524c0 3.925-.312 6.611-.935 8.057-.762 1.763-1.885 3.12-3.368 4.07-1.483.936-3.368 1.405-5.654 1.405-2.48 0-4.49-.551-6.028-1.653-1.525-1.102-2.599-2.637-3.222-4.607-.444-1.363-.666-3.843-.666-7.437V8.75ZM90.075 8.75h5.8l5.883 14.11 6.485-14.11h5.82l-14.177 30.7h-5.861l4.656-9.896L90.075 8.75ZM117.244 8.75h5.695v2.583c.971-1.06 2.044-1.853 3.222-2.376 1.192-.523 2.488-.785 3.887-.785 1.414 0 2.689.344 3.826 1.033 1.136.689 2.05 1.694 2.744 3.016.9-1.322 2.001-2.327 3.304-3.016 1.317-.689 2.751-1.033 4.303-1.033 1.608 0 3.021.372 4.241 1.116 1.219.743 2.093 1.714 2.619 2.913.541 1.198.811 3.147.811 5.846v13.18h-5.717V19.824c0-2.548-.318-4.27-.956-5.165-.638-.909-1.594-1.364-2.868-1.364-.971 0-1.844.276-2.62.827-.762.55-1.33 1.315-1.704 2.293-.374.964-.561 2.52-.561 4.669v10.143h-5.717V20.34c0-2.01-.152-3.464-.457-4.359-.291-.909-.734-1.584-1.33-2.024-.596-.441-1.317-.662-2.163-.662a4.28 4.28 0 0 0-2.577.848c-.763.55-1.337 1.329-1.725 2.334-.375 1.005-.562 2.59-.562 4.751v10h-5.695V8.75ZM179.979 21.62h-18.23c.263 1.599.963 2.873 2.1 3.823 1.149.936 2.612 1.405 4.385 1.405 2.121 0 3.943-.737 5.468-2.21l4.78 2.23c-1.191 1.68-2.619 2.927-4.282 3.74-1.663.798-3.637 1.198-5.923 1.198-3.549 0-6.438-1.109-8.669-3.326-2.231-2.232-3.347-5.02-3.347-8.367 0-3.43 1.108-6.274 3.326-8.532 2.231-2.273 5.024-3.409 8.377-3.409 3.562 0 6.458 1.136 8.689 3.409 2.231 2.258 3.347 5.247 3.347 8.966l-.021 1.074Zm-5.695-4.44c-.375-1.254-1.116-2.273-2.224-3.058-1.096-.785-2.37-1.178-3.826-1.178-1.579 0-2.965.441-4.157 1.322-.748.551-1.441 1.522-2.079 2.913h12.286Z"/>
    <path fill="#fff" d="M42.81 39.5h52.323l2.973-5.318H42.81V39.5ZM109.403 8.773h10.702V13.5h-10.702V8.773Z"/>
    <path fill="#AB0000" d="M30.918.5 19.027 6.445v26.872L30.918 39.5V.5ZM13.08 13.5 0 20.529 13.08 27.8V13.5Z"/>
  </g>
  <defs>
    <clipPath id="a">
      <path fill="#fff" d="M0 .5h180v39H0z"/>
    </clipPath>
  </defs>
</svg>
